<svg xmlns="http://www.w3.org/2000/svg" width="1024" height="500" viewBox="0 0 1024 500">
  <defs>
    <linearGradient id="bg" x1="0" y1="0" x2="1" y2="1">
      <stop offset="0%" stop-color="#0f1b3d"/>
      <stop offset="50%" stop-color="#1E3C72"/>
      <stop offset="100%" stop-color="#2A5298"/>
    </linearGradient>
    <linearGradient id="wave" x1="0" y1="0" x2="1" y2="0">
      <stop offset="0%" stop-color="#A8E6CF" stop-opacity="0"/>
      <stop offset="20%" stop-color="#A8E6CF" stop-opacity="0.6"/>
      <stop offset="80%" stop-color="#A8E6CF" stop-opacity="0.6"/>
      <stop offset="100%" stop-color="#A8E6CF" stop-opacity="0"/>
    </linearGradient>
  </defs>

  <!-- Background -->
  <rect width="1024" height="500" fill="url(#bg)"/>

  <!-- Waveform lines -->
  <path d="M0,300 Q50,270 100,300 Q150,330 200,300 Q250,270 300,300 Q350,330 400,300 Q450,270 500,300 Q550,330 600,300 Q650,270 700,300 Q750,330 800,300 Q850,270 900,300 Q950,330 1024,300"
        fill="none" stroke="url(#wave)" stroke-width="2" opacity="0.4"/>
  <path d="M0,320 Q50,300 100,320 Q150,340 200,320 Q250,300 300,320 Q350,340 400,320 Q450,300 500,320 Q550,340 600,320 Q650,300 700,320 Q750,340 800,320 Q850,300 900,320 Q950,340 1024,320"
        fill="none" stroke="url(#wave)" stroke-width="1.5" opacity="0.25"/>

  <!-- Headphones icon -->
  <g transform="translate(462, 60) scale(1.5)">
    <path fill="#A8E6CF" fill-opacity="0.85"
          d="M32,5.43C18.32,5.43 7.14,16.61 7.14,30.29v9.64c0,8.87 7.2,16.07 16.07,16.07h3.21V33.5H16.07v-3.21c0-12.44 10.07-22.5 22.5-22.5s22.5,10.06 22.5,22.5v3.21h-12.86V56h3.22c8.87,0 16.07-7.2 16.07-16.07v-9.64C67.5,16.61 56.32,5.43 42.64,5.43z"/>
  </g>

  <!-- App name -->
  <text x="512" y="230" text-anchor="middle" font-family="sans-serif" font-size="56" font-weight="bold" fill="white">
    DeepWave
  </text>

  <!-- Subtitle -->
  <text x="512" y="270" text-anchor="middle" font-family="sans-serif" font-size="20" fill="#A8E6CF" letter-spacing="4">
    BINAURAL BEATS
  </text>

  <!-- Feature tags -->
  <g transform="translate(512, 370)" text-anchor="middle" font-family="sans-serif" font-size="16" fill="white" fill-opacity="0.7">
    <text x="-300" y="0">😴 Sleep</text>
    <text x="-150" y="0">🎯 Focus</text>
    <text x="0" y="0">🧘 Meditation</text>
    <text x="150" y="0">⚡ Energy</text>
    <text x="300" y="0">🔔 Solfeggio</text>
  </g>

  <!-- Bottom tagline -->
  <text x="512" y="450" text-anchor="middle" font-family="sans-serif" font-size="14" fill="white" fill-opacity="0.4" letter-spacing="2">
    OFFLINE · NO ADS · NO TRACKING · OPEN SOURCE
  </text>
</svg>
